<svg width="21" height="10" viewBox="0 0 21 10" fill="none" xmlns="http://www.w3.org/2000/svg">
<path d="M15.9033 0C13.4971 0 11.6846 2.15625 10.7783 3.53125C9.84085 2.15625 8.0596 0 5.6221 0C2.9346 0 0.778345 2.25 0.778345 5C0.778345 7.78125 2.9346 10 5.6221 10C8.0596 10 9.84085 7.875 10.7783 6.5C11.6846 7.875 13.4971 10 15.9033 10C18.5908 10 20.7783 7.78125 20.7783 5C20.7783 2.25 18.5908 0 15.9033 0ZM5.6221 8.5C3.77835 8.5 2.27835 6.9375 2.27835 5C2.27835 3.09375 3.77835 1.5 5.6221 1.5C7.7471 1.5 9.40335 4.09375 9.90335 5C9.40335 5.9375 7.7471 8.5 5.6221 8.5ZM15.9033 8.5C13.7783 8.5 12.1221 5.9375 11.6221 5C12.1533 4.09375 13.7783 1.5 15.9033 1.5C17.7471 1.5 19.2783 3.09375 19.2783 5C19.2783 6.9375 17.7471 8.5 15.9033 8.5Z" fill="#CCCCCC"/>
</svg>